<svg width="77" height="81" viewBox="0 0 77 81" fill="none" xmlns="http://www.w3.org/2000/svg">
<path d="M18.3856 40.2441C18.3856 45.3211 14.2699 49.4369 9.19281 49.4369C4.11576 49.4369 0 45.3211 0 40.2441C0 35.167 4.11576 31.0513 9.19281 31.0513C14.2699 31.0513 18.3856 35.167 18.3856 40.2441Z" fill="#00FF00"/>
<path fill-rule="evenodd" clip-rule="evenodd" d="M29.8605 1.37053C38.4238 -0.921054 47.5049 -0.326718 55.6961 3.06182C63.8874 6.45043 70.7327 12.4448 75.1683 20.1176C77.7093 24.5131 76.2059 30.1361 71.8105 32.6771C67.415 35.2181 61.792 33.7147 59.251 29.3193C56.8424 25.1528 53.123 21.8941 48.6679 20.0511C44.2126 18.208 39.2721 17.8845 34.6134 19.1312C29.9548 20.3779 25.8405 23.1243 22.9073 26.942C19.8141 30.968 14.0429 31.7242 10.0169 28.631C5.99094 25.5377 5.23478 19.7665 8.32799 15.7405C13.7278 8.71239 21.2971 3.66216 29.8605 1.37053ZM71.8105 47.8111C76.2059 50.352 77.7093 55.9751 75.1683 60.3705C70.7327 68.0434 63.8874 74.0377 55.6961 77.4263C47.5049 80.8149 38.4238 81.4092 29.8605 79.1176C21.2971 76.826 13.7278 71.7758 8.32799 64.7476C5.23478 60.7217 5.99094 54.9504 10.0169 51.8572C14.0429 48.764 19.8141 49.5202 22.9073 53.5461C25.8405 57.3639 29.9548 60.1103 34.6134 61.357C39.2721 62.6037 44.2126 62.2802 48.6679 60.4371C53.123 58.594 56.8424 55.3354 59.251 51.1689C61.792 46.7734 67.415 45.2701 71.8105 47.8111Z" fill="#00FF00"/>
<path d="M18.3856 40.2441C18.3856 45.3211 14.2699 49.4369 9.19281 49.4369C4.11576 49.4369 0 45.3211 0 40.2441C0 35.167 4.11576 31.0513 9.19281 31.0513C14.2699 31.0513 18.3856 35.167 18.3856 40.2441Z" fill="#00FF00"/>
</svg>
